PathFileType	4	(X/Y/Z)	T1_P2_NoVision_NoMovement_4_0-734.trc
DataRate	CameraRate	NumFrames	NumMarkers	Units	OrigDataRate	OrigDataStartFrame	OrigNumFrames
60	60	4	27	m	60	642	734
Frame#	Time	RHip			RKnee			RAnkle			RBigToe			RSmallToe			RHeel			LHip			LKnee			LAnkle			LBigToe			LSmallToe			LHeel			Neck			Head			Nose			RShoulder			RElbow			RWrist			RThumb			RIndex			RPinky			LShoulder			LElbow			LWrist			LThumb			LIndex			LPinky		
		X1	Y1	Z1	X2	Y2	Z2	X3	Y3	Z3	X4	Y4	Z4	X5	Y5	Z5	X6	Y6	Z6	X7	Y7	Z7	X8	Y8	Z8	X9	Y9	Z9	X10	Y10	Z10	X11	Y11	Z11	X12	Y12	Z12	X13	Y13	Z13	X14	Y14	Z14	X15	Y15	Z15	X16	Y16	Z16	X17	Y17	Z17	X18	Y18	Z18	X19	Y19	Z19	X20	Y20	Z20	X21	Y21	Z21	X22	Y22	Z22	X23	Y23	Z23	X24	Y24	Z24	X25	Y25	Z25	X26	Y26	Z26	X27	Y27	Z27
643	10.716666666666667	467.18610898421116	3646.6638538631	541.2024932943307	864.2683103648133	3711.870732668522	572.4310737027404	1237.779999689543	3744.624669072979	616.8181857625848	1311.7537739111335	3606.9397183426368	560.8875007516475	1304.5278693933776	3672.413587203038	519.6472408714347	1272.5336781725025	3707.0581197420734	620.5679947124262	460.3627864276726	3522.930927606671	737.334267624462	852.9084605505221	3539.814644770583	735.9701926446	1214.463955464174	3598.9053699867072	725.5353005095752	1305.6312150189572	3510.0114329609637	665.3958925892216	1264.4451711739096	3438.7267381322818	702.5005866292669	1263.5205522372833	3606.7702069819834	708.4764170025454	-127.40643334340078	3542.5725043286034	639.1027080742294	-383.6401769321545	3511.922088957279	633.1933467023874	-235.72592544193677	3464.9606339200095	613.3719395998663	-44.66704336958497	3683.3227538427554	537.1842119136412	206.66114268300754	3655.952549876391	435.0028523311502	355.07062467708806	3472.3450813482345	495.58197228765914	455.6028226313207	3526.794231444704	620.5344565827686	440.0169556514356	3478.8589824382243	602.0799308830634	468.94032242677173	3472.934444361599	588.0279895362288	-28.494881398781196	3533.823199133535	817.7007807252379	225.9597293743301	3413.0760687836923	775.6782595221433	367.93973648063985	3414.6607132703666	604.0272617850727	417.83477648268786	3417.642648144731	508.2942713243637	436.0913010911105	3441.9127410491105	511.68832456187096	458.0103441000372	3412.311789095659	570.2346760471161
644	10.733333333333333	461.5425252804048	3642.500849144667	539.7230686509398	853.5738189381643	3693.3385154227144	557.8030542335192	1237.8381878698617	3744.890193349208	616.6778171691785	1315.8009398677527	3614.8215915426126	558.5333049902193	1304.3112470681833	3672.421102944142	519.2218964896955	1270.2313758572632	3715.201422641128	619.1978118621109	460.45665870691187	3523.20974826551	737.372537235651	847.2134225861448	3536.0614333896515	734.8319267892037	1216.964540375781	3594.0929611632673	722.7134165415043	1305.5839093351524	3509.9267429579654	665.320542441698	1264.3741952257037	3438.747825826142	702.4453824404063	1258.505164825291	3607.9418147830324	702.2808996331759	-127.38640179381055	3542.573683277474	639.109846697763	-378.84346549650843	3508.071788350049	631.1942029383134	-235.66847110277	3464.9983867576757	613.4063404066643	-44.76635414678455	3683.3494830453806	537.2004561242762	202.4006314415877	3660.727467546784	437.19953822463646	355.0608573253293	3472.218477682755	495.5214322946967	455.55684744587995	3526.504022002647	620.2824549924544	439.29774818891946	3478.9461576713593	602.1554929638712	473.34780642213815	3476.8210432347973	589.2277231051389	-22.97133370711216	3550.6574753626405	832.910098872264	228.27884710176528	3400.332278588353	762.899833689787	372.85327877658074	3418.45841045554	605.1952195561247	422.1064174140519	3422.0629303042488	504.8101854467699	435.700676599447	3440.222965809314	510.4131466189328	459.14219552099155	3400.6217534718144	559.3102910630984
645	10.75	466.7743530675553	3646.541070990202	541.0267304924741	853.6259204730203	3693.5331425824243	557.7958470699023	1237.8641298120483	3744.868984122335	616.7193295685048	1308.3148256869415	3611.081234488646	557.7701591825587	1297.776190387904	3667.91003471269	518.6980991606276	1270.2314550292606	3715.162663320544	619.2315600112087	460.31857362684354	3523.093817807083	737.313448311824	853.0177139583081	3540.1833354710584	736.1469069944571	1217.091303271296	3594.35460006358	722.9254413560022	1305.6378258882605	3510.071961639528	665.3704560747332	1264.5192891068964	3438.7872157270713	702.4609054470097	1258.6040818672589	3608.435121862142	702.5391080751393	-127.39372628893256	3542.509417141607	639.0605740411131	-378.810262882704	3507.9462892247097	631.1357951950226	-235.67268029661867	3464.770365280647	613.2663933260723	-44.6842072477509	3683.2170372343417	537.1125214740246	202.42434594626383	3660.7645876568636	437.2135267847361	355.0179896207458	3472.15078055879	495.37305994073466	450.2495726634035	3537.379918900431	628.0791991079886	435.40842946460106	3483.581964336539	604.3809698994444	473.2842238851818	3476.865701346089	589.2286057702196	-22.968319570074062	3550.513175155245	832.8221578209847	228.3175548926278	3402.4310725903574	758.1594325714856	372.83703779901214	3418.423805038443	605.1645817836226	418.4801293048516	3424.560664934239	505.39371112476726	435.0118988099946	3439.4766529194785	509.2248477316687	455.97583405793387	3386.7435739030648	547.2611266664545
646	10.766666666666667	466.9335380048222	3646.6364895251463	541.1053111158151	858.4150076253367	3695.545059910251	559.2463023322694	1250.1203357715083	3751.46144013913	619.5383045710793	1315.8600643163213	3614.9726319543292	558.5725129552656	1310.2821216624448	3674.1830971167096	521.0574528694195	1270.374816768521	3715.483480480166	619.7189889684703	460.4463833055519	3522.992979391177	737.3588145736128	853.3462691014641	3540.5417626600047	736.3682036817023	1221.139431401058	3603.586229124516	726.7157635470372	1315.0938495541618	3520.424773850089	670.3009977150897	1264.665350315269	3438.805251120115	702.4809660136083	1258.373603617329	3607.8080272687293	702.6132422793916	-127.4035202202419	3542.411204433275	639.0099580913429	-378.84716053543826	3508.054510948371	631.1650569284877	-235.72475781806827	3464.8304071146654	613.3256035793901	-44.65195176172845	3683.1272380919995	537.0704031961736	206.66382620522742	3655.9821974984334	434.9865684250919	355.00192081031014	3471.897467963066	495.27573889353044	443.93370481228504	3503.833258808315	611.3460738800759	435.72114277489055	3460.6732558901977	597.5521068141312	465.58875170577085	3454.1564099292573	582.5385784790553	-22.992095151176596	3550.4832424867745	832.7910300139919	230.3339751441196	3416.406792375865	771.4481472523994	372.80387499081183	3418.395954167038	605.1961649179153	418.28909326569993	3423.942896322551	505.27838253616727	434.83657658226247	3438.834167234318	508.9963973070301	455.9756467411071	3386.7548002170934	547.242283272779
